<svg width="320" height="400" viewBox="0 0 320 400" fill="none" xmlns="http://www.w3.org/2000/svg">
<path fill-rule="evenodd" clip-rule="evenodd" d="M139.971 125.469C139.987 125.206 140.206 125 140.47 125H152.872C153.132 125 153.349 125.2 153.37 125.46L160 208.333L206.457 241.517C206.589 241.611 206.667 241.762 206.667 241.924V257.635C206.667 257.977 206.33 258.218 206.005 258.108L133.694 233.456C133.481 233.384 133.343 233.177 133.357 232.952L139.971 125.469Z" fill="black"/>
<path opacity="0.3" fill-rule="evenodd" clip-rule="evenodd" d="M74.7297 11.7933C74.4984 11.4486 74.0389 11.599 73.9533 12.0474L54.0977 116.101C54.0302 116.454 54.2475 116.779 54.5377 116.759L140.171 110.693C140.539 110.667 140.739 110.126 140.507 109.781L116.65 74.2411C128.298 69.2655 140.65 66.6667 153.333 66.6667C215.926 66.6667 266.667 130.093 266.667 208.333C266.667 286.574 215.926 350 153.333 350C90.7411 350 40 286.574 40 208.333C40 195.199 41.423 182.334 44.1975 169.97L18.5218 160.968C15.1413 176.032 13.3334 191.919 13.3334 208.333C13.3334 304.983 76.0135 383.333 153.333 383.333C230.653 383.333 293.333 304.983 293.333 208.333C293.333 111.684 230.653 33.3334 153.333 33.3334C133.885 33.3334 115.362 38.2906 98.5307 47.2494L74.7297 11.7933Z" fill="black"/>
</svg>
