<svg width="400" height="400" viewBox="0 0 400 400" fill="none" xmlns="http://www.w3.org/2000/svg">
<path fill-rule="evenodd" clip-rule="evenodd" d="M250 364.19C250 364.932 250.962 365.223 251.374 364.606L382.556 167.833C382.888 167.334 382.531 166.667 381.932 166.667H283.333V35.8106C283.333 35.0685 282.371 34.7771 281.959 35.3946L150.777 232.167C150.445 232.666 150.802 233.333 151.401 233.333H250V364.19Z" fill="black"/>
<path opacity="0.3" fill-rule="evenodd" clip-rule="evenodd" d="M50 84.8335C50 84.0051 50.6715 83.3335 51.5 83.3335H181.833C182.662 83.3335 183.333 84.0051 183.333 84.8335V131.833C183.333 132.662 182.662 133.333 181.833 133.333H51.5C50.6715 133.333 50 132.662 50 131.833V84.8335ZM50 284.833C50 284.005 50.6715 283.333 51.5 283.333H181.833C182.662 283.333 183.333 284.005 183.333 284.833V331.833C183.333 332.662 182.662 333.333 181.833 333.333H51.5C50.6715 333.333 50 332.662 50 331.833V284.833ZM18.1666 183.333C17.3382 183.333 16.6666 184.005 16.6666 184.833V231.833C16.6666 232.662 17.3382 233.333 18.1666 233.333H131.833C132.662 233.333 133.333 232.662 133.333 231.833V184.833C133.333 184.005 132.662 183.333 131.833 183.333H18.1666Z" fill="black"/>
</svg>
