<svg width="400" height="400" viewBox="0 0 400 400" fill="none" xmlns="http://www.w3.org/2000/svg">
<path opacity="0.3" fill-rule="evenodd" clip-rule="evenodd" d="M283.216 106.841L293.436 63.042C295.513 54.1417 303.448 47.8452 312.587 47.8452H347.001C357.862 47.8452 366.667 56.6497 366.667 67.5105C366.667 78.3714 357.862 87.1758 347.001 87.1758H328.192L302.41 197.398L288.172 282.828C288.08 283.378 287.556 283.747 287.007 283.647L72.2989 244.609C71.9243 244.541 71.6209 244.266 71.5163 243.9L32.7207 108.116C32.5382 107.477 33.0179 106.841 33.6823 106.841H283.216Z" fill="black"/>
<path fill-rule="evenodd" clip-rule="evenodd" d="M133.333 325C133.333 338.807 122.14 350 108.333 350C94.5261 350 83.3333 338.807 83.3333 325C83.3333 311.193 94.5261 300 108.333 300C122.14 300 133.333 311.193 133.333 325ZM283.333 325C283.333 338.807 272.14 350 258.333 350C244.526 350 233.333 338.807 233.333 325C233.333 311.193 244.526 300 258.333 300C272.14 300 283.333 311.193 283.333 325Z" fill="black"/>
</svg>
