<svg width="16" height="17" viewBox="0 0 16 17" fill="none" xmlns="http://www.w3.org/2000/svg">
<g clip-path="url(#clip0_2758_7191)">
<path fill-rule="evenodd" clip-rule="evenodd" d="M15.275 4.59598L15.1583 4.39598C15.0078 4.15414 14.7956 3.95313 14.5417 3.81199L8.95 0.715999C8.69683 0.575 8.40942 0.500496 8.11667 0.5H7.875C7.58225 0.500496 7.29483 0.575 7.04167 0.715999L1.45 3.81999C1.19747 3.96019 0.987717 4.16156 0.841667 4.40398L0.725 4.60398C0.578125 4.84705 0.500517 5.12297 0.5 5.40398V11.604C0.500517 11.885 0.578125 12.1609 0.725 12.4039L0.841667 12.6039C0.991492 12.8435 1.20041 13.0441 1.45 13.1879L7.05 16.2839C7.30192 16.4279 7.59017 16.5026 7.88333 16.4999H8.11667C8.40942 16.4995 8.69683 16.425 8.95 16.2839L14.5417 13.1799C14.7967 13.0429 15.0072 12.8407 15.15 12.5959L15.275 12.396C15.4201 12.1522 15.4976 11.8768 15.5 11.596V5.39598C15.4995 5.11497 15.4219 4.83905 15.275 4.59598ZM7.875 2.09999H8.11667L13 4.80398L8 7.57197L3 4.80398L7.875 2.09999ZM8.83333 14.4999L13.7083 11.796L13.8333 11.596V6.18798L8.83333 8.96396V14.4999Z" fill="black"/>
</g>
<defs>
<clipPath id="clip0_2758_7191">
<rect width="16" height="16" fill="white" transform="translate(0 0.5)"/>
</clipPath>
</defs>
</svg>
