<svg width="60" height="60" viewBox="0 0 60 60" fill="none" xmlns="http://www.w3.org/2000/svg">
<g clip-path="url(#clip0_2853_6798)">
<path d="M53.8834 9.99998C53.6562 9.97657 53.4272 9.97657 53.2 9.99998H6.53336C6.23426 10.0046 5.93715 10.0494 5.65002 10.1333L29.7334 34.1166L53.8834 9.99998Z" fill="black"/>
<path d="M56.35 12.3167L32.0833 36.4833C31.4588 37.1042 30.614 37.4526 29.7333 37.4526C28.8527 37.4526 28.0079 37.1042 27.3833 36.4833L3.33334 12.5C3.25941 12.7717 3.22021 13.0517 3.21667 13.3333V46.6667C3.21667 47.5507 3.56786 48.3986 4.19299 49.0237C4.81811 49.6488 5.66595 50 6.55001 50H53.2167C54.1007 50 54.9486 49.6488 55.5737 49.0237C56.1988 48.3986 56.55 47.5507 56.55 46.6667V13.3333C56.5367 12.9861 56.4693 12.643 56.35 12.3167V12.3167ZM8.83334 46.6667H6.51667V44.2833L18.6333 32.2667L20.9833 34.6167L8.83334 46.6667ZM53.1833 46.6667H50.85L38.7 34.6167L41.05 32.2667L53.1667 44.2833L53.1833 46.6667Z" fill="black"/>
</g>
<defs>
<clipPath id="clip0_2853_6798">
<rect width="60" height="60" fill="white"/>
</clipPath>
</defs>
</svg>
