<svg width="60" height="60" viewBox="0 0 60 60" fill="none" xmlns="http://www.w3.org/2000/svg">
<g clip-path="url(#clip0_2853_6731)">
<path d="M60 0H0V60H60V0Z" fill="url(#paint0_linear_2853_6731)"/>
<path d="M44.5667 33.8C43.5 33.8 42.6 32.9333 42.6 31.8333C42.6 30.7667 43.4667 29.8667 44.5667 29.8667C45.6333 29.8667 46.5333 30.7333 46.5333 31.8333C46.5 32.9333 45.6333 33.8 44.5667 33.8ZM34.8 33.8C33.7333 33.8 32.8333 32.9333 32.8333 31.8333C32.8333 30.7667 33.7 29.8667 34.8 29.8667C35.8667 29.8667 36.7667 30.7333 36.7667 31.8333C36.7333 32.9333 35.8667 33.8 34.8 33.8ZM49.2667 45C52.3667 42.7667 54.3333 39.4333 54.3333 35.7667C54.3333 29.0333 47.7667 23.5667 39.6667 23.5667C31.5667 23.5667 25 29.0333 25 35.7667C25 42.5 31.5667 47.9667 39.6667 47.9667C41.3333 47.9667 42.9667 47.7333 44.4667 47.3C44.6 47.2667 44.7333 47.2333 44.9 47.2333C45.1667 47.2333 45.4333 47.3333 45.6667 47.4667L48.8667 49.3333C48.9667 49.4 49.0333 49.4333 49.1333 49.4333C49.4 49.4333 49.6333 49.2 49.6333 48.9333C49.6333 48.8 49.6 48.7 49.5667 48.5667C49.5333 48.5 49.1667 47.0333 48.9 46.1C48.8667 46 48.8333 45.9 48.8333 45.8C48.8667 45.4667 49 45.1667 49.2667 45Z" fill="white"/>
<path d="M29.1334 22.3666C27.8334 22.3666 26.8001 21.3333 26.8001 20.0333C26.8001 18.7333 27.8334 17.7 29.1334 17.7C30.4334 17.7 31.4667 18.7333 31.4667 20.0333C31.4667 21.3333 30.4001 22.3666 29.1334 22.3666ZM17.4001 22.3666C16.1001 22.3666 15.0667 21.3333 15.0667 20.0333C15.0667 18.7333 16.1001 17.7 17.4001 17.7C18.7001 17.7 19.7334 18.7333 19.7334 20.0333C19.7334 21.3333 18.7001 22.3666 17.4001 22.3666ZM23.2667 10.0667C13.5667 10.0667 5.66675 16.6333 5.66675 24.7333C5.66675 29.1333 8.03341 33.1333 11.7334 35.8C12.0334 36 12.2334 36.3667 12.2334 36.7667C12.2334 36.9 12.2001 37 12.1667 37.1333C11.8667 38.2333 11.4001 40 11.3667 40.1C11.3334 40.2333 11.2667 40.3666 11.2667 40.5333C11.2667 40.8666 11.5334 41.1333 11.8667 41.1333C12.0001 41.1333 12.1001 41.1 12.2001 41.0333L16.0334 38.8C16.3334 38.6333 16.6334 38.5333 16.9667 38.5333C17.1334 38.5333 17.3334 38.5667 17.5001 38.6C19.3001 39.1 21.2334 39.4 23.2334 39.4C23.5667 39.4 23.8667 39.4 24.2001 39.3666C23.8334 38.2333 23.6001 37.0333 23.6001 35.7667C23.6001 28.4 30.7667 22.4 39.6334 22.4C39.9667 22.4 40.2668 22.4 40.6001 22.4333C39.3001 15.4333 32.0334 10.0667 23.2667 10.0667Z" fill="white"/>
</g>
<defs>
<linearGradient id="paint0_linear_2853_6731" x1="30.0022" y1="59.8884" x2="30.0022" y2="0.0662432" gradientUnits="userSpaceOnUse">
<stop offset="0.0145433" stop-color="#07C160"/>
<stop offset="1" stop-color="#02E36F"/>
</linearGradient>
<clipPath id="clip0_2853_6731">
<rect width="60" height="60" rx="20" fill="white"/>
</clipPath>
</defs>
</svg>
