<svg width="60" height="60" viewBox="0 0 60 60" fill="none" xmlns="http://www.w3.org/2000/svg">
<path d="M12.6059 37.9152C12.6059 41.3843 9.772 44.2182 6.30294 44.2182C2.83388 44.2182 0 41.3843 0 37.9152C0 34.4462 2.83388 31.6123 6.30294 31.6123H12.6059V37.9152Z" fill="#E01E5A"/>
<path d="M15.7817 37.9152C15.7817 34.4462 18.6156 31.6123 22.0847 31.6123C25.5537 31.6123 28.3876 34.4462 28.3876 37.9152V53.697C28.3876 57.166 25.5537 59.9999 22.0847 59.9999C18.6156 59.9999 15.7817 57.166 15.7817 53.697V37.9152Z" fill="#E01E5A"/>
<path d="M22.0847 12.6059C18.6156 12.6059 15.7817 9.77199 15.7817 6.30293C15.7817 2.83388 18.6156 0 22.0847 0C25.5537 0 28.3876 2.83388 28.3876 6.30293V12.6059H22.0847Z" fill="#36C5F0"/>
<path d="M22.0847 15.7817C25.5538 15.7817 28.3877 18.6156 28.3877 22.0847C28.3877 25.5537 25.5538 28.3876 22.0847 28.3876H6.30294C2.83388 28.3876 0 25.5537 0 22.0847C0 18.6156 2.83388 15.7817 6.30294 15.7817H22.0847Z" fill="#36C5F0"/>
<path d="M47.394 22.0847C47.394 18.6156 50.2279 15.7817 53.697 15.7817C57.166 15.7817 59.9999 18.6156 59.9999 22.0847C59.9999 25.5537 57.166 28.3876 53.697 28.3876H47.394V22.0847Z" fill="#2EB67D"/>
<path d="M44.2182 22.0847C44.2182 25.5537 41.3843 28.3876 37.9152 28.3876C34.4462 28.3876 31.6123 25.5537 31.6123 22.0847V6.30293C31.6123 2.83388 34.4462 0 37.9152 0C41.3843 0 44.2182 2.83388 44.2182 6.30293V22.0847Z" fill="#2EB67D"/>
<path d="M37.9152 47.394C41.3843 47.394 44.2182 50.2279 44.2182 53.697C44.2182 57.166 41.3843 59.9999 37.9152 59.9999C34.4462 59.9999 31.6123 57.166 31.6123 53.697V47.394H37.9152Z" fill="#ECB22E"/>
<path d="M37.9152 44.2182C34.4462 44.2182 31.6123 41.3843 31.6123 37.9152C31.6123 34.4462 34.4462 31.6123 37.9152 31.6123H53.697C57.1661 31.6123 60 34.4462 60 37.9152C60 41.3843 57.1661 44.2182 53.697 44.2182H37.9152Z" fill="#ECB22E"/>
</svg>
