<svg width="64" height="28" viewBox="0 0 64 28" fill="none" xmlns="http://www.w3.org/2000/svg">
<g clip-path="url(#clip0_2842_7504)">
<path d="M1.31445 21.5H13.9985V17.944H5.85045V1.47998H1.31445V21.5Z" fill="#333333"/>
<path d="M22.3369 18.728C20.0409 18.728 18.7529 17.048 18.7529 14.248V14.024C18.7529 11.224 20.0969 9.60002 22.3369 9.60002C24.6049 9.60002 25.9209 11.28 25.9209 14.08V14.276C25.9209 17.048 24.6049 18.728 22.3369 18.728ZM22.3089 21.808C26.7049 21.808 30.0369 18.868 30.0369 14.248V14.024C30.0369 9.46002 26.7329 6.52002 22.3369 6.52002C17.9409 6.52002 14.6089 9.51602 14.6089 14.108V14.332C14.6089 18.896 17.9409 21.808 22.3089 21.808Z" fill="#333333"/>
<path d="M38.415 26.904C43.231 26.904 46.1149 24.692 46.1429 20.352V6.85602H42.111V9.04002C41.271 7.55602 39.8429 6.52002 37.4629 6.52002C33.8229 6.52002 31.0229 9.46002 31.0229 13.66V13.856C31.0229 18.196 33.8509 20.856 37.4069 20.856C39.5629 20.856 41.299 19.568 42.111 18.14V20.352C42.111 22.648 40.879 23.936 38.415 23.936C36.343 23.936 35.419 23.096 35.167 21.808H31.1349C31.5269 24.832 33.683 26.904 38.415 26.904ZM38.611 17.804C36.595 17.804 35.167 16.292 35.167 13.856V13.632C35.167 11.224 36.427 9.60002 38.695 9.60002C40.9069 9.60002 42.2229 11.112 42.2229 13.604V13.8C42.2229 16.292 40.739 17.804 38.611 17.804Z" fill="#333333"/>
<path d="M55.7116 18.728C53.4156 18.728 52.1276 17.048 52.1276 14.248V14.024C52.1276 11.224 53.4716 9.60002 55.7116 9.60002C57.9796 9.60002 59.2956 11.28 59.2956 14.08V14.276C59.2956 17.048 57.9796 18.728 55.7116 18.728ZM55.6836 21.808C60.0796 21.808 63.4116 18.868 63.4116 14.248V14.024C63.4116 9.46002 60.1076 6.52002 55.7116 6.52002C51.3156 6.52002 47.9836 9.51602 47.9836 14.108V14.332C47.9836 18.896 51.3156 21.808 55.6836 21.808Z" fill="#333333"/>
</g>
<defs>
<clipPath id="clip0_2842_7504">
<rect width="63" height="27" fill="white" transform="translate(0.75 0.5)"/>
</clipPath>
</defs>
</svg>
