<svg width="60" height="60" viewBox="0 0 60 60" fill="none" xmlns="http://www.w3.org/2000/svg">
<path d="M49.1478 1.425e-05H10.936C4.93614 -0.00794231 0.00880309 4.85058 8.75855e-06 10.8519V49.0627C-0.00752924 55.0644 4.85155 59.992 10.8522 60H49.0644C55.0655 60.0075 59.9908 55.1494 60 49.1468V10.9357C60.0084 4.93392 55.1501 0.00838957 49.1478 1.425e-05Z" fill="#00B900"/>
<path d="M51.7479 27.3619C51.7479 17.587 41.9485 9.63467 29.9024 9.63467C17.8579 9.63467 8.05725 17.587 8.05725 27.3619C8.05725 36.125 15.8289 43.4639 26.3269 44.8517C27.0384 45.0049 28.0066 45.3207 28.2516 45.9287C28.4718 46.4811 28.3956 47.3462 28.3219 47.904C28.3219 47.904 28.0656 49.4455 28.0103 49.7738C27.9153 50.3262 27.5715 51.9338 29.9024 50.9514C32.2341 49.969 42.4833 43.5438 47.0664 38.2686H47.0656C50.2315 34.7971 51.7479 31.274 51.7479 27.3619Z" fill="white"/>
<path d="M25.4639 22.6383H23.9316C23.6967 22.6383 23.5057 22.8288 23.5057 23.0629V32.5815C23.5057 32.816 23.6967 33.0061 23.9316 33.0061H25.4639C25.6989 33.0061 25.8894 32.816 25.8894 32.5815V23.0629C25.8894 22.8288 25.6989 22.6383 25.4639 22.6383Z" fill="#00B900"/>
<path d="M36.0109 22.6383H34.4786C34.2436 22.6383 34.0531 22.8288 34.0531 23.0629V28.7179L29.6911 22.8272C29.681 22.8121 29.6697 22.7978 29.658 22.784L29.6551 22.7815C29.6467 22.7719 29.6383 22.7635 29.6295 22.7551C29.627 22.7526 29.6245 22.7505 29.6216 22.748C29.6145 22.7413 29.6069 22.735 29.599 22.7292C29.5956 22.7258 29.5918 22.7233 29.5881 22.7204C29.5805 22.7153 29.5734 22.7099 29.5659 22.7053C29.5617 22.7024 29.5575 22.6998 29.5529 22.6978C29.5454 22.6931 29.5378 22.6885 29.5303 22.6848C29.5257 22.6827 29.5215 22.6802 29.5169 22.6785C29.5089 22.6747 29.501 22.671 29.4926 22.668C29.4876 22.6663 29.4834 22.6647 29.4788 22.663C29.4704 22.6601 29.462 22.6571 29.4532 22.655C29.4486 22.6534 29.4436 22.6525 29.4386 22.6509C29.4302 22.6492 29.4222 22.6471 29.4143 22.6454C29.4084 22.6446 29.4021 22.6437 29.3963 22.6433C29.3887 22.6416 29.3812 22.6412 29.3737 22.6404C29.3665 22.6395 29.3594 22.6395 29.3519 22.6391C29.3464 22.6391 29.3423 22.6383 29.3368 22.6383H27.8049C27.57 22.6383 27.379 22.8288 27.379 23.0629V32.5815C27.379 32.816 27.57 33.0061 27.8049 33.0061H29.3368C29.5722 33.0061 29.7627 32.816 29.7627 32.5815V26.9281L34.1301 32.8265C34.1603 32.8692 34.1976 32.9039 34.2382 32.9316C34.2394 32.9324 34.2411 32.9337 34.2424 32.9349C34.2512 32.9404 34.26 32.9458 34.2688 32.9508C34.2729 32.9533 34.2767 32.955 34.2809 32.9571C34.2872 32.9609 34.2943 32.9642 34.301 32.9672C34.3081 32.9701 34.3144 32.973 34.3219 32.976C34.3261 32.9776 34.3303 32.9793 34.3345 32.9806C34.3446 32.9843 34.3538 32.9873 34.3634 32.9902C34.3655 32.9902 34.3676 32.991 34.3697 32.9914C34.4044 33.0007 34.4409 33.0061 34.4786 33.0061H36.0109C36.2462 33.0061 36.4364 32.816 36.4364 32.5815V23.0629C36.4364 22.8288 36.2462 22.6383 36.0109 22.6383Z" fill="#00B900"/>
<path d="M21.7703 30.6227H17.6068V23.0636C17.6068 22.8287 17.4162 22.6381 17.1817 22.6381H15.649C15.4141 22.6381 15.2235 22.8287 15.2235 23.0636V32.5805V32.5813C15.2235 32.6956 15.2692 32.7991 15.3424 32.8753C15.3441 32.8774 15.3458 32.8795 15.3483 32.8816C15.3504 32.8836 15.3525 32.8853 15.3546 32.8874C15.4312 32.9611 15.5342 33.0063 15.6486 33.0063H15.649H21.7703C22.0052 33.0063 22.1949 32.8154 22.1949 32.5805V31.0482C22.1949 30.8133 22.0052 30.6227 21.7703 30.6227Z" fill="#00B900"/>
<path d="M44.4728 25.0217C44.7077 25.0217 44.8974 24.8316 44.8974 24.5963V23.064C44.8974 22.8291 44.7077 22.6381 44.4728 22.6381H38.3515H38.3507C38.2359 22.6381 38.1325 22.6842 38.0558 22.7583C38.0542 22.76 38.0521 22.7612 38.0508 22.7629C38.0483 22.7654 38.0462 22.7679 38.0441 22.7704C37.9713 22.8467 37.926 22.9497 37.926 23.0636V23.064V32.5809V32.5813C37.926 32.6956 37.9717 32.7991 38.045 32.8753C38.0466 32.8774 38.0487 32.8799 38.0508 32.8816C38.0525 32.8836 38.055 32.8857 38.0571 32.8874C38.1333 32.9607 38.2368 33.0063 38.3507 33.0063H38.3515H44.4728C44.7077 33.0063 44.8974 32.8154 44.8974 32.5809V31.0482C44.8974 30.8137 44.7077 30.6227 44.4728 30.6227H40.3097V29.0138H44.4728C44.7077 29.0138 44.8974 28.8233 44.8974 28.5884V27.0561C44.8974 26.8212 44.7077 26.6302 44.4728 26.6302H40.3097V25.0217H44.4728Z" fill="#00B900"/>
</svg>
