<svg width="60" height="60" viewBox="0 0 60 60" fill="none" xmlns="http://www.w3.org/2000/svg">
<path d="M56.4 30.625C56.4 28.675 56.225 26.8 55.9 25H30V35.6375H44.8C44.1625 39.075 42.225 41.9875 39.3125 43.9375V50.8375H48.2C53.4 46.05 56.4 39 56.4 30.625V30.625Z" fill="#4285F4"/>
<path d="M30 57.5001C37.425 57.5001 43.6501 55.0376 48.2001 50.8376L39.3125 43.9376C36.85 45.5876 33.7 46.5626 30 46.5626C22.8375 46.5626 16.775 41.7251 14.6125 35.2251H5.42505V42.3501C9.95005 51.3376 19.25 57.5001 30 57.5001Z" fill="#34A853"/>
<path d="M14.6125 35.2249C14.0625 33.5749 13.75 31.8124 13.75 29.9999C13.75 28.1874 14.0625 26.4249 14.6125 24.7749V17.6499H5.425C3.5 21.482 2.4983 25.7114 2.5 29.9999C2.5 34.4374 3.5625 38.6374 5.425 42.3499L14.6125 35.2249V35.2249Z" fill="#FBBC05"/>
<path d="M30 13.4375C34.0375 13.4375 37.6625 14.825 40.5125 17.55L48.4001 9.6625C43.6376 5.225 37.4125 2.5 30 2.5C19.25 2.5 9.95005 8.6625 5.42505 17.65L14.6125 24.775C16.775 18.275 22.8375 13.4375 30 13.4375Z" fill="#EA4335"/>
</svg>
