<svg width="60" height="60" viewBox="0 0 60 60" fill="none" xmlns="http://www.w3.org/2000/svg">
<path d="M30 3.75C13.4297 3.75 0 14.6602 0 28.125C0 33.9375 2.50781 39.2578 6.67969 43.4414C5.21484 49.3477 0.316406 54.6094 0.257813 54.668C0 54.9375 -0.0703125 55.3359 0.0820312 55.6875C0.234375 56.0391 0.5625 56.25 0.9375 56.25C8.70703 56.25 14.5313 52.5234 17.4141 50.2266C21.2461 51.668 25.5 52.5 30 52.5C46.5703 52.5 60 41.5898 60 28.125C60 14.6602 46.5703 3.75 30 3.75ZM15.0234 35.625H13.5938C13.0781 35.625 12.6562 35.2031 12.6562 34.6875V32.8125C12.6562 32.2969 13.0781 31.875 13.5938 31.875H15.0352C15.7383 31.875 16.2539 31.4648 16.2539 31.1016C16.2539 30.9492 16.1602 30.7852 16.0078 30.6563L13.4414 28.4531C12.4453 27.6094 11.8828 26.4023 11.8828 25.1602C11.8828 22.6641 14.1094 20.6367 16.8516 20.6367H18.2812C18.7969 20.6367 19.2188 21.0586 19.2188 21.5742V23.4492C19.2188 23.9648 18.7969 24.3867 18.2812 24.3867H16.8398C16.1367 24.3867 15.6211 24.7969 15.6211 25.1602C15.6211 25.3125 15.7148 25.4766 15.8672 25.6055L18.4336 27.8086C19.4297 28.6523 19.9922 29.8594 19.9922 31.1016C20.0039 33.5977 17.7656 35.625 15.0234 35.625ZM37.5 34.6875C37.5 35.2031 37.0781 35.625 36.5625 35.625H34.6875C34.1719 35.625 33.75 35.2031 33.75 34.6875V26.6953L30.8438 33.2344C30.5039 33.9258 29.5078 33.9258 29.168 33.2344L26.25 26.6953V34.6875C26.25 35.2031 25.8281 35.625 25.3125 35.625H23.4375C22.9219 35.625 22.5 35.2031 22.5 34.6875V22.5C22.5 21.4687 23.3437 20.625 24.375 20.625H26.25C26.9648 20.625 27.6094 21.0234 27.9258 21.6563L30 25.8047L32.0742 21.6563C32.3906 21.0234 33.0469 20.625 33.75 20.625H35.625C36.6563 20.625 37.5 21.4687 37.5 22.5V34.6875ZM43.1602 35.625H41.7188C41.2031 35.625 40.7812 35.2031 40.7812 34.6875V32.8125C40.7812 32.2969 41.2031 31.875 41.7188 31.875H43.1602C43.8633 31.875 44.3789 31.4648 44.3789 31.1016C44.3789 30.9492 44.2852 30.7852 44.1328 30.6563L41.5664 28.4531C40.5703 27.6094 40.0078 26.4023 40.0078 25.1602C40.0078 22.6641 42.2344 20.6367 44.9766 20.6367H46.4062C46.9219 20.6367 47.3438 21.0586 47.3438 21.5742V23.4492C47.3438 23.9648 46.9219 24.3867 46.4062 24.3867H44.9648C44.2617 24.3867 43.7461 24.7969 43.7461 25.1602C43.7461 25.3125 43.8398 25.4766 43.9922 25.6055L46.5586 27.8086C47.5547 28.6523 48.1172 29.8594 48.1172 31.1016C48.1289 33.5977 45.9023 35.625 43.1602 35.625Z" fill="black"/>
</svg>
