<svg width="60" height="60" viewBox="0 0 60 60" fill="none" xmlns="http://www.w3.org/2000/svg">
<g clip-path="url(#clip0_2853_6759)">
<path d="M30.0234 60.0468C46.6048 60.0468 60.0468 46.6048 60.0468 30.0234C60.0468 13.4419 46.6048 0 30.0234 0C13.4419 0 0 13.4419 0 30.0234C0 46.6048 13.4419 60.0468 30.0234 60.0468Z" fill="url(#paint0_linear_2853_6759)"/>
<path fill-rule="evenodd" clip-rule="evenodd" d="M13.562 29.6961C22.3071 25.8613 28.1528 23.3828 31.099 22.1669C39.4232 18.7062 41.1535 18.0983 42.2759 18.0515C42.5097 18.0515 43.0709 18.0983 43.4451 18.3789C43.7256 18.6127 43.8192 18.9401 43.8659 19.1739C43.9127 19.4077 43.9595 19.9221 43.9127 20.343C43.4451 25.0663 41.5277 36.6174 40.4988 41.9019C40.0779 44.1466 39.2362 44.8948 38.4412 44.9884C36.7108 45.1287 35.3546 43.8192 33.6711 42.7436C31.0522 41.0133 29.5557 39.9377 26.9836 38.2542C24.0374 36.29 25.9548 35.2144 27.6383 33.4841C28.0592 33.0164 35.7755 26.0484 35.9158 25.3937C35.9158 25.3001 35.9626 25.0196 35.7755 24.8793C35.5885 24.739 35.3546 24.7857 35.1676 24.8325C34.887 24.8793 30.6781 27.6852 22.4942 33.2035C21.2783 34.0453 20.2027 34.4194 19.2206 34.4194C18.145 34.4194 16.0873 33.8114 14.544 33.297C12.6734 32.6891 11.1769 32.3617 11.3172 31.3329C11.4108 30.8185 12.159 30.2573 13.562 29.6961Z" fill="white"/>
</g>
<defs>
<linearGradient id="paint0_linear_2853_6759" x1="0" y1="30.0016" x2="60.0033" y2="30.0016" gradientUnits="userSpaceOnUse">
<stop stop-color="#2AABEE"/>
<stop offset="1" stop-color="#229ED9"/>
</linearGradient>
<clipPath id="clip0_2853_6759">
<rect width="60" height="60" fill="white"/>
</clipPath>
</defs>
</svg>
