<svg width="60" height="60" viewBox="0 0 60 60" fill="none" xmlns="http://www.w3.org/2000/svg">
<path d="M50.8875 12.1012C48.9065 10.6274 46.1812 9.66275 44.1319 8.99338C40.1747 7.70057 34.2412 7.02182 30.0319 6.88494V6.87744C30.0084 6.87744 29.9822 6.88119 29.9597 6.88119C29.9353 6.88119 29.9081 6.87744 29.8856 6.87744V6.88494C25.6753 7.02182 19.7419 7.70057 15.7856 8.99338C13.74 9.66275 11.0091 10.6274 9.02811 12.1012C4.62374 12.3318 0.407802 17.9474 0.0356141 20.4965C-0.359073 23.2228 3.13968 25.919 7.86093 26.5237C12.5766 27.1237 16.7194 25.3987 17.1178 22.6734C17.2762 21.5831 16.9097 19.7784 16.1203 17.9671C20.4675 16.1474 25.7344 15.2324 29.9616 15.0571C34.185 15.2324 39.4537 16.1474 43.7991 17.9671C43.0116 19.7803 42.645 21.5859 42.8034 22.6734C43.2028 25.3996 47.3447 27.1237 52.0603 26.5237C56.7853 25.919 60.2803 23.2228 59.8856 20.4965C59.5144 17.9474 55.2966 12.3309 50.8903 12.1012" fill="black"/>
<path d="M55.1325 52.4889V37.8001L40.7691 20.5604V14.8154H35.9813V18.2682H23.7938V14.8154H19.0069V20.5604L4.6416 37.8001V52.4889H55.1325Z" fill="black"/>
<path d="M25.109 29.6316C25.109 30.6273 24.4115 31.4307 23.5584 31.4307H20.9043C20.0484 31.4307 19.3556 30.6282 19.3556 29.6316V27.4116C19.3556 26.4216 20.0493 25.6191 20.9043 25.6191H23.5584C24.4125 25.6191 25.109 26.4216 25.109 27.4116V29.6316M32.7572 29.6316C32.7572 30.6273 32.0634 31.4307 31.2103 31.4307H28.5562C27.7003 31.4307 27.0056 30.6282 27.0056 29.6316V27.4116C27.0056 26.4216 27.7012 25.6191 28.5562 25.6191H31.2103C32.0634 25.6191 32.7572 26.4216 32.7572 27.4116V29.6316ZM40.2337 29.6316C40.2337 30.6273 39.539 31.4307 38.685 31.4307H36.0309C35.174 31.4307 34.4822 30.6282 34.4822 29.6316V27.4116C34.4822 26.4216 35.174 25.6191 36.0309 25.6191H38.685C39.539 25.6191 40.2337 26.4216 40.2337 27.4116V29.6316ZM25.1972 37.2254C25.1972 38.2182 24.4997 39.0198 23.6484 39.0198H20.9925C20.1365 39.0198 19.4428 38.2182 19.4428 37.2254V35.0016C19.4428 34.0145 20.1365 33.211 20.9925 33.211H23.6484C24.5006 33.211 25.1972 34.0145 25.1972 35.0016V37.2254ZM32.85 37.2254C32.85 38.2182 32.1562 39.0198 31.3022 39.0198H28.6462C27.7903 39.0198 27.0975 38.2182 27.0975 37.2254V35.0016C27.0975 34.0145 27.7912 33.211 28.6462 33.211H31.3022C32.1562 33.211 32.85 34.0145 32.85 35.0016V37.2254ZM40.3218 37.2254C40.3218 38.2182 39.6272 39.0198 38.7731 39.0198H36.119C35.2631 39.0198 34.5684 38.2182 34.5684 37.2254V35.0016C34.5684 34.0145 35.2631 33.211 36.119 33.211H38.7731C39.6272 33.211 40.3218 34.0145 40.3218 35.0016V37.2254ZM25.2862 45.0376C25.2862 46.0285 24.5887 46.832 23.7347 46.832H21.0806C20.2247 46.832 19.5318 46.0285 19.5318 45.0376V42.8157C19.5318 41.8266 20.2256 41.0232 21.0806 41.0232H23.7347C24.5887 41.0232 25.2862 41.8266 25.2862 42.8157V45.0376ZM32.9343 45.0376C32.9343 46.0285 32.2415 46.832 31.3875 46.832H28.7315C27.8756 46.832 27.1818 46.0285 27.1818 45.0376V42.8157C27.1818 41.8266 27.8756 41.0232 28.7315 41.0232H31.3875C32.2415 41.0232 32.9343 41.8266 32.9343 42.8157V45.0376ZM40.4062 45.0376C40.4062 46.0285 39.7106 46.832 38.8575 46.832H36.2034C35.3456 46.832 34.6547 46.0285 34.6547 45.0376V42.8157C34.6547 41.8266 35.3456 41.0232 36.2034 41.0232H38.8575C39.7106 41.0232 40.4062 41.8266 40.4062 42.8157V45.0376Z" fill="#E7E6E6"/>
</svg>
