<svg width="60" height="60" viewBox="0 0 60 60" fill="none" xmlns="http://www.w3.org/2000/svg">
<g clip-path="url(#clip0_2853_6768)">
<path d="M60 29.9999C60 13.4314 46.5686 -5.81452e-05 30 -5.81452e-05C13.4314 -5.81452e-05 0 13.4314 0 29.9999C0 44.9738 10.9706 57.3849 25.3125 59.6355V38.6718H17.6953V29.9999H25.3125V23.3906C25.3125 15.8718 29.7913 11.7187 36.6439 11.7187C39.9262 11.7187 43.3594 12.3046 43.3594 12.3046V19.6874H39.5764C35.8497 19.6874 34.6875 22 34.6875 24.3724V29.9999H43.0078L41.6777 38.6718H34.6875V59.6355C49.0294 57.3849 60 44.9738 60 29.9999Z" fill="#1877F2"/>
<path d="M41.6777 38.6719L43.0078 30H34.6875V24.3725C34.6875 22 35.8497 19.6875 39.5764 19.6875H43.3594V12.3047C43.3594 12.3047 39.9262 11.7188 36.6439 11.7188C29.7913 11.7188 25.3125 15.8719 25.3125 23.3906V30H17.6953V38.6719H25.3125V59.6356C26.8399 59.8752 28.4053 60 30 60C31.5947 60 33.1601 59.8752 34.6875 59.6356V38.6719H41.6777Z" fill="white"/>
</g>
<defs>
<clipPath id="clip0_2853_6768">
<rect width="60" height="60" fill="white"/>
</clipPath>
</defs>
</svg>
