<svg width="63" height="26" viewBox="0 0 63 26" fill="none" xmlns="http://www.w3.org/2000/svg">
<path d="M27.2588 25.5H27.5388V0.96875L28.1301 1.90625V25.5H28.4102V2.40625L28.9704 3.34375V25.5H29.2505V3.84375L29.8418 4.78125V25.5H30.1218V5.28125L30.682 6.25V25.5H30.9932V6.71875L31.5534 7.6875V25.5H31.8335V8.15625L32.4248 9.125V25.5H32.7048V9.59375L33.265 10.5625V25.5H33.5451V11.0312L34.1364 12V25.5H34.4165V12.4688L34.9766 13.4375V25.5H35.2879V13.9062L35.848 14.875V25.5H36.1281V15.3438L36.7194 16.3125V25.5H36.9995V16.7812L37.5597 17.75V25.5H37.8397V18.2188L38.431 19.1875V25.5H38.7111V19.6562L39.2713 20.625V25.5H39.5825V21.0938L40.1427 22.0625V25.5H40.4227V22.5312L41.014 23.5V25.5H41.2941V23.9688L41.8543 24.9375V25.5H42.1344V0.53125H41.8543V15L41.2941 14.0312V0.53125H41.014V13.5625L40.4227 12.5938V0.53125H40.1427V12.125L39.5825 11.1562V0.53125H39.2713V10.6562L38.7111 9.71875V0.53125H38.431V9.21875L37.8397 8.28125V0.53125H37.5597V7.78125L36.9995 6.84375V0.53125H36.7194V6.34375L36.1281 5.375V0.53125H35.848V4.90625L35.2879 3.9375V0.53125H34.9766V3.46875L34.4165 2.5V0.53125H34.1364V2.03125L33.5451 1.0625V0.5H33.265L27.2588 0.53125V25.5Z" fill="#222222"/>
<path d="M62.0332 0.5L45.726 0.53125V5.8125L62.0332 5.78125V0.5ZM56.0269 10.375L45.726 10.4062V15.625L56.058 15.5938L56.0269 10.375ZM45.726 20.3438V25.5L62.5 25.4688V20.3125L45.726 20.3438ZM45.726 19.5V19.7812H56.0269V19.5H45.726ZM45.726 18.625V18.9375H56.0269V18.625H45.726ZM45.726 17.7812V18.0625H56.0269V17.7812H45.726ZM45.726 16.9375V17.2188H56.0269V16.9375H45.726ZM45.726 16.0937V16.375H56.0269V16.0937H45.726ZM45.726 9.71875V10.0312H56.0269V9.71875H45.726ZM45.726 8.875V9.15625H56.0269V8.875H45.726ZM45.726 8.03125V8.3125H56.0269V8.03125H45.726ZM45.726 7.1875V7.46875H56.0269V7.1875H45.726ZM45.726 6.34375V6.625H56.0269V6.34375H45.726Z" fill="#222222"/>
<path d="M12.663 25.2566C16.1065 25.1962 19.0209 23.947 21.4063 21.509C23.7914 19.0502 24.9542 16.1127 24.8948 12.6965C24.8354 9.28039 23.5714 6.39585 21.1027 4.04292C18.6337 1.66917 15.6774 0.512465 12.2339 0.572821C8.79046 0.633177 5.87621 1.89278 3.49118 4.35161C1.10579 6.78962 -0.0572185 9.7167 0.00216353 13.1328C0.0481484 15.7783 0.899522 18.2012 2.55629 20.4017C3.72435 21.944 5.17686 23.1374 6.91381 23.9821C8.71371 24.8674 10.6301 25.2922 12.663 25.2566ZM12.2355 20.3571L12.2284 19.9509L10.237 19.9858C9.79848 19.8268 9.40109 19.6462 9.04482 19.4441L12.2186 19.3885L12.2137 19.1072L8.5732 19.1711C8.32137 19.0088 8.06919 18.8257 7.81664 18.6217L12.204 18.5448L12.1991 18.2636L7.5006 18.346C7.43728 18.2846 7.35267 18.1923 7.24678 18.0691C7.12014 17.9463 7.02517 17.8542 6.96185 17.7928L12.1893 17.7012L12.1839 17.3888L6.73861 17.4842C6.61125 17.3197 6.48353 17.1345 6.35544 16.9283L12.1741 16.8263L12.1692 16.5451L6.16386 16.6504L5.87404 16.0929L12.1594 15.9827L12.1545 15.7015L5.74469 15.8139L5.54822 15.2547L12.1448 15.1391L12.1393 14.8267L5.44944 14.9439C5.40578 14.8197 5.36103 14.6329 5.3152 14.3837L12.1296 14.2642L12.1247 13.983L5.24808 14.1036C5.22625 14.0414 5.21425 13.9479 5.21208 13.8229C5.18916 13.6983 5.17716 13.6047 5.17607 13.5422L12.1149 13.4206L12.11 13.1394L5.17119 13.261L5.16087 12.6674L12.0997 12.5457L12.0948 12.2645L5.18709 12.3856C5.18492 12.2606 5.20241 12.0728 5.23955 11.8221L12.085 11.7021L12.0801 11.4209L5.26578 11.5404C5.28543 11.4775 5.31492 11.3832 5.35424 11.2575C5.37281 11.1322 5.39192 11.0381 5.41158 10.9752L12.0704 10.8585L12.0649 10.5461L5.46838 10.6617C5.48804 10.5988 5.5279 10.5044 5.58796 10.3783C5.62691 10.2317 5.66659 10.1269 5.70699 10.0637L12.0546 9.95239L12.0497 9.67119L5.82656 9.78026L6.09683 9.21294L12.0399 9.10877L12.0351 8.82756L6.27863 8.92846C6.39911 8.69715 6.53051 8.4969 6.67282 8.32771L12.0247 8.2339L12.0198 7.9527L6.91686 8.04214C7.0184 7.91534 7.19147 7.72478 7.43605 7.47045L12.0101 7.39028L12.0052 7.10908L7.77343 7.18325C8.03912 6.94939 8.29516 6.75737 8.54155 6.6072L11.9954 6.54666L11.99 6.23421L9.03398 6.28602C9.46598 6.07008 9.9502 5.87407 10.4866 5.69797L11.9802 5.67179L11.9759 5.42183L12.3804 5.41474C14.4133 5.37911 16.1684 6.07762 17.6458 7.51029C19.1025 8.94331 19.8488 10.6909 19.8846 12.7531C19.9205 14.8153 19.2354 16.588 17.8294 18.0712C16.4027 19.5547 14.6729 20.3143 12.64 20.35L12.2355 20.3571Z" fill="#222222"/>
</svg>
