<svg width="20" height="19" viewBox="0 0 20 19" fill="none" xmlns="http://www.w3.org/2000/svg">
<path d="M9.07075 0.612344C9.4145 -0.204115 10.5853 -0.204114 10.929 0.612346L12.9578 5.43123C13.1028 5.77543 13.4304 6.01061 13.8065 6.0404L19.0725 6.45748C19.9648 6.52814 20.3265 7.62813 19.6468 8.2034L15.6347 11.5987C15.3481 11.8412 15.2229 12.2218 15.3104 12.5843L16.5362 17.661C16.7439 18.5211 15.7968 19.201 15.0329 18.7401L10.5244 16.0196C10.2024 15.8252 9.79738 15.8252 9.47536 16.0196L4.96687 18.7401C4.20299 19.201 3.25583 18.5211 3.46351 17.661L4.6893 12.5843C4.77686 12.2218 4.6517 11.8412 4.36513 11.5987L0.35294 8.2034C-0.32684 7.62813 0.0349458 6.52814 0.927169 6.45748L6.19323 6.0404C6.56938 6.01061 6.89703 5.77543 7.04194 5.43123L9.07075 0.612344Z" fill="black"/>
</svg>
